<?xml version="1.0" standalone="no"?>
<!DOCTYPE svg PUBLIC "-//W3C//DTD SVG 20010904//EN"
 "http://www.w3.org/TR/2001/REC-SVG-20010904/DTD/svg10.dtd">
<svg version="1.0" xmlns="http://www.w3.org/2000/svg"
 width="275.000000pt" height="275.000000pt" viewBox="0 0 275.000000 275.000000"
 preserveAspectRatio="xMidYMid meet">
<metadata>
Created by potrace 1.14, written by Peter Selinger 2001-2017
</metadata>
<g transform="translate(0.000000,275.000000) scale(0.100000,-0.100000)"
fill="#000000" stroke="none">
<path d="M1258 2739 c-13 -3 51 -6 142 -6 91 0 156 1 145 3 -39 7 -264 9 -287
3z"/>
<path d="M690 2730 c-10 -7 1 -8 35 -4 28 4 52 8 54 10 10 9 -75 3 -89 -6z"/>
<path d="M843 2733 c9 -2 25 -2 35 0 9 3 1 5 -18 5 -19 0 -27 -2 -17 -5z"/>
<path d="M1148 2733 c7 -3 16 -2 19 1 4 3 -2 6 -13 5 -11 0 -14 -3 -6 -6z"/>
<path d="M1638 2733 c12 -2 30 -2 40 0 9 3 -1 5 -23 4 -22 0 -30 -2 -17 -4z"/>
<path d="M638 2723 c-40 -10 -14 -23 45 -21 59 2 60 2 12 5 -35 3 -45 7 -35
13 16 10 8 11 -22 3z"/>
<path d="M1955 2720 c-4 -6 6 -10 22 -10 22 0 25 2 13 10 -19 12 -27 12 -35 0z"/>
<path d="M777 2709 c7 -7 15 -10 18 -7 3 3 -2 9 -12 12 -14 6 -15 5 -6 -5z"/>
<path d="M970 2715 c8 -2 83 -6 165 -9 83 -3 180 -9 218 -12 44 -4 67 -3 67 4
0 6 -5 14 -12 18 -7 4 -8 3 -4 -4 5 -8 -1 -12 -16 -12 -14 0 -18 3 -11 8 6 4
-86 8 -205 9 -120 1 -210 0 -202 -2z"/>
<path d="M1493 2713 c37 -2 97 -2 135 0 37 2 6 3 -68 3 -74 0 -105 -1 -67 -3z"/>
<path d="M1748 2713 c7 -3 16 -2 19 1 4 3 -2 6 -13 5 -11 0 -14 -3 -6 -6z"/>
<path d="M1808 2713 c18 -2 45 -2 60 0 15 2 0 4 -33 4 -33 0 -45 -2 -27 -4z"/>
<path d="M838 2703 c18 -2 45 -2 60 0 15 2 0 4 -33 4 -33 0 -45 -2 -27 -4z"/>
<path d="M2245 2700 l-30 -8 27 -1 c15 0 30 4 33 9 3 6 5 9 3 9 -2 -1 -16 -5
-33 -9z"/>
<path d="M415 2690 c-3 -5 -1 -10 4 -10 6 0 11 5 11 10 0 6 -2 10 -4 10 -3 0
-8 -4 -11 -10z"/>
<path d="M993 2693 c15 -2 39 -2 55 0 15 2 2 4 -28 4 -30 0 -43 -2 -27 -4z"/>
<path d="M1468 2693 c23 -2 59 -2 80 0 20 2 1 4 -43 4 -44 0 -61 -2 -37 -4z"/>
<path d="M1613 2693 c15 -2 37 -2 50 0 12 2 0 4 -28 4 -27 0 -38 -2 -22 -4z"/>
<path d="M1752 2693 c37 -2 100 -2 140 0 40 1 10 3 -67 3 -77 0 -110 -1 -73
-3z"/>
<path d="M2078 2693 c23 -2 61 -2 85 0 23 2 4 4 -43 4 -47 0 -66 -2 -42 -4z"/>
<path d="M488 2683 c6 -2 18 -2 25 0 6 3 1 5 -13 5 -14 0 -19 -2 -12 -5z"/>
<path d="M648 2683 c29 -2 74 -2 100 0 26 2 2 3 -53 3 -55 0 -76 -1 -47 -3z"/>
<path d="M808 2684 c31 -14 3 -19 -99 -16 -62 2 -115 0 -120 -5 -4 -4 24 -8
64 -8 40 -1 227 -2 416 -3 189 -2 346 -1 349 3 3 3 -129 6 -294 7 -195 1 -264
4 -199 8 63 4 82 7 50 9 -27 1 -79 4 -115 6 -36 3 -59 2 -52 -1z"/>
<path d="M2368 2683 c7 -3 16 -2 19 1 4 3 -2 6 -13 5 -11 0 -14 -3 -6 -6z"/>
<path d="M1048 2673 c12 -2 32 -2 45 0 12 2 2 4 -23 4 -25 0 -35 -2 -22 -4z"/>
<path d="M1283 2673 c92 -2 242 -2 335 0 92 1 16 3 -168 3 -184 0 -260 -2
-167 -3z"/>
<path d="M1808 2673 c12 -2 30 -2 40 0 9 3 -1 5 -23 4 -22 0 -30 -2 -17 -4z"/>
<path d="M1995 2671 c159 -10 91 -13 -250 -11 -165 1 -298 -1 -295 -4 3 -2
237 -7 520 -9 283 -3 481 -2 440 2 -69 6 -71 7 -30 12 l45 4 -53 5 c-39 4 -51
2 -47 -7 3 -10 -15 -13 -73 -11 l-77 2 68 3 c37 2 67 7 67 11 0 4 -96 7 -213
8 -163 1 -187 0 -102 -5z"/>
<path d="M188 2663 c7 -3 16 -2 19 1 4 3 -2 6 -13 5 -11 0 -14 -3 -6 -6z"/>
<path d="M253 2663 c15 -2 37 -2 50 0 12 2 0 4 -28 4 -27 0 -38 -2 -22 -4z"/>
<path d="M403 2663 c9 -2 23 -2 30 0 6 3 -1 5 -18 5 -16 0 -22 -2 -12 -5z"/>
<path d="M473 2663 c15 -2 37 -2 50 0 12 2 0 4 -28 4 -27 0 -38 -2 -22 -4z"/>
<path d="M238 2643 c17 -2 47 -2 65 0 17 2 3 4 -33 4 -36 0 -50 -2 -32 -4z"/>
<path d="M371 2646 c2 -2 49 -6 103 -9 61 -3 94 -2 85 4 -13 8 -197 14 -188 5z"/>
<path d="M595 2640 c-14 -6 -2 -9 43 -9 35 -1 61 3 58 7 -7 11 -77 13 -101 2z"/>
<path d="M850 2630 c80 -4 146 -8 148 -9 1 0 2 -14 2 -31 0 -28 -2 -30 -42
-31 -27 -1 -34 -3 -17 -6 23 -4 28 -11 38 -61 7 -31 14 -64 17 -72 3 -12 -8
-15 -64 -13 -52 1 -62 -1 -42 -8 13 -6 33 -9 45 -8 56 4 65 0 65 -31 0 -21 -5
-30 -16 -30 -12 0 -15 -6 -10 -26 6 -22 4 -25 -9 -20 -9 3 -13 2 -10 -4 3 -6
15 -10 26 -10 26 0 25 -36 -1 -43 -17 -4 -20 -14 -20 -71 0 -36 -3 -66 -7 -66
-5 0 -73 -13 -152 -29 l-143 -29 -157 14 c-194 18 -201 19 -201 44 0 11 -4 20
-9 20 -16 0 -23 38 -11 61 10 17 9 24 -4 37 -23 23 -49 -2 -41 -40 4 -16 2
-35 -4 -42 -7 -8 -18 -36 -25 -62 -18 -62 -120 -352 -148 -421 -15 -37 -27
-53 -40 -53 -10 0 -18 -5 -18 -11 0 -6 7 -9 15 -5 8 3 15 1 15 -4 0 -6 -6 -10
-14 -10 -10 0 -14 -17 -15 -61 l-1 -61 42 3 c78 4 98 1 98 -20 0 -13 -7 -18
-25 -18 -14 0 -22 4 -18 10 4 6 -2 8 -15 5 -12 -3 -22 -2 -24 3 -2 5 -16 0
-33 -11 l-30 -20 44 0 c50 0 48 -13 -2 -14 -31 -1 -32 -3 -34 -43 -2 -40 0
-43 25 -43 25 0 25 -1 7 -14 -11 -8 -22 -13 -26 -11 -9 6 -7 -29 3 -42 5 -7 5
-14 -2 -18 -7 -4 -10 -133 -10 -405 1 -367 2 -399 18 -403 15 -4 15 -5 1 -6
-13 -1 -17 -14 -18 -71 -1 -52 2 -71 11 -69 7 1 22 1 33 -1 l20 -1 -20 -8
c-11 -5 -26 -6 -32 -4 -9 4 -12 -4 -11 -21 l2 -26 126 1 c79 0 118 4 105 9
-16 7 -14 9 15 9 32 1 33 0 15 -12 -32 -22 -107 -37 -192 -39 l-78 -1 60 -7
60 -7 -60 -3 -60 -3 50 -7 c45 -6 46 -7 15 -10 -19 -1 -27 -4 -17 -7 9 -2 15
-9 12 -14 -8 -12 63 -12 101 0 16 5 63 12 104 14 41 3 62 2 45 -2 -24 -6 -15
-9 45 -14 103 -10 238 -12 247 -4 3 4 -45 8 -108 9 l-114 2 115 6 c63 3 93 7
67 8 -57 2 -55 22 3 22 44 0 70 -8 70 -22 0 -5 -5 -6 -12 -2 -7 4 -8 3 -4 -4
4 -7 26 -11 49 -11 40 1 40 2 12 9 l-30 8 30 2 c26 1 27 3 10 10 -13 5 7 8 58
7 42 0 77 -5 77 -10 0 -5 -23 -7 -50 -5 -28 1 -50 0 -50 -4 0 -9 8 -10 79 -8
30 1 65 6 78 11 14 5 22 5 19 0 -4 -5 0 -12 6 -14 7 -3 -4 -6 -24 -6 -21 -1
-38 -6 -38 -12 0 -6 8 -8 18 -5 9 2 42 7 72 10 l55 5 -60 -14 c-57 -13 -52
-13 105 -10 204 5 387 14 419 21 20 4 22 7 10 15 -10 8 -7 10 13 6 16 -2 26 0
25 7 -1 7 26 11 78 12 69 0 71 0 15 -3 -36 -2 -69 -9 -75 -14 -7 -7 -2 -10 15
-9 14 1 43 1 65 -1 27 -2 14 -5 -40 -9 l-80 -7 87 1 c82 1 99 -5 53 -18 -11
-3 3 -3 31 0 32 4 54 1 59 -5 8 -14 65 -14 65 -1 0 6 -15 10 -32 11 -18 1 -44
4 -58 8 -21 6 -22 8 -8 14 10 3 20 2 23 -3 4 -6 26 -10 50 -10 35 0 43 -3 39
-15 -5 -13 18 -15 177 -13 l184 2 -170 6 c-93 3 -150 8 -125 10 25 2 60 3 78
1 22 -1 32 2 27 8 -4 7 -49 11 -112 11 -93 0 -104 2 -93 15 9 11 31 15 89 13
l76 -2 -80 -6 c-79 -6 -79 -6 38 -8 87 -2 119 -5 123 -15 3 -10 28 -13 97 -11
51 2 107 -1 125 -6 18 -4 30 -5 28 -1 -3 4 11 8 30 8 20 1 31 -3 28 -9 -4 -6
2 -5 14 1 11 6 60 10 109 9 77 -1 82 -2 38 -8 -47 -6 -45 -7 30 -9 58 -2 75
-5 60 -12 -15 -6 -8 -8 25 -4 25 2 74 5 110 6 l65 3 -80 6 -80 6 80 4 80 3
-65 7 -65 7 65 3 65 3 -55 7 c-37 5 -45 8 -25 9 17 2 40 2 53 1 32 -2 27 18
-5 23 l-28 4 28 2 c44 2 32 27 -20 39 l-48 11 50 -5 c81 -7 30 12 -68 26 -48
7 -86 15 -83 18 3 3 40 -1 81 -8 41 -7 78 -10 82 -6 3 3 -3 6 -15 6 -18 0 -65
10 -186 41 -21 6 -36 12 -34 14 2 2 30 -3 63 -11 32 -9 67 -13 77 -11 10 3 16
2 13 -3 -3 -4 12 -11 33 -15 20 -3 47 -9 60 -12 12 -3 22 0 22 5 0 6 -10 13
-22 15 l-23 4 23 2 c26 1 30 27 5 34 -17 4 -17 5 -1 6 17 1 18 33 18 489 0
311 -4 482 -10 472 -5 -8 -17 -15 -27 -15 -10 -1 -17 -6 -15 -13 3 -16 -6 -15
-23 2 -12 12 -9 15 21 20 19 4 32 11 29 17 -4 5 1 9 10 9 12 0 15 9 13 40 -2
22 -6 40 -10 40 -5 0 -8 5 -8 11 0 5 4 8 8 5 5 -3 9 1 9 7 0 7 -9 14 -20 14
-11 1 -24 8 -28 15 -6 9 -9 7 -9 -9 0 -14 -7 -23 -22 -26 -17 -3 -14 -5 10 -6
17 0 32 4 32 9 0 6 5 10 12 10 8 0 7 -5 -3 -15 -21 -21 -156 -26 -169 -6 -4 8
-15 11 -23 8 -11 -4 -14 -2 -10 9 8 20 -28 46 -44 32 -8 -6 -13 -7 -13 -1 0
15 -45 32 -71 27 -13 -2 -18 -2 -11 2 6 3 10 10 6 15 -3 5 0 9 6 9 7 0 9 7 6
16 -4 10 1 22 11 30 17 12 16 13 -7 22 l-25 9 23 7 c28 9 24 28 -9 38 -24 8
-24 8 2 4 15 -1 34 3 43 9 15 11 12 13 -17 19 -19 4 -42 4 -51 0 -9 -4 -16 -1
-16 6 0 8 17 11 55 8 30 -2 56 1 57 7 2 6 -14 11 -35 12 -21 0 -41 4 -44 7 -6
6 7 7 182 10 170 4 185 5 185 20 0 8 -10 17 -22 19 l-23 4 23 2 c44 2 21 19
-28 19 -34 0 -48 -4 -43 -12 3 -6 -3 -2 -15 8 -12 11 -22 21 -22 23 0 3 24 4
53 3 28 -1 58 -1 65 -1 18 1 15 19 -5 24 -17 4 -17 5 0 6 9 0 17 6 17 12 0 7
-19 8 -57 3 -32 -3 -55 -3 -52 0 6 7 40 13 87 15 12 0 22 6 22 12 0 7 -11 9
-30 6 -17 -4 -30 -2 -30 3 0 6 14 10 32 10 17 0 28 3 24 8 -9 9 -66 10 -60 1
11 -18 -33 -33 -90 -32 l-61 2 50 -13 c36 -10 43 -14 25 -16 -18 -1 -11 -6 25
-15 l50 -13 -75 -1 c-41 -1 -86 -4 -99 -8 -18 -4 -22 -2 -19 8 3 8 20 17 39
20 l34 6 -35 2 c-38 1 -69 -13 -56 -26 4 -4 -12 -13 -36 -20 l-43 -11 70 0
c43 0 85 -6 109 -16 21 -9 48 -17 60 -18 11 -1 -37 -4 -109 -7 -71 -3 -152 -2
-179 2 -76 13 -104 -6 -34 -23 31 -8 30 -8 -15 -9 -31 -1 -46 -5 -42 -12 4 -6
13 -8 19 -6 7 3 19 1 27 -4 10 -6 7 -9 -13 -9 -14 0 -28 -4 -30 -10 -1 -5 -33
41 -69 103 -36 62 -117 199 -180 306 -63 106 -112 196 -111 199 2 3 -2 9 -10
13 -9 6 -6 9 12 9 61 2 154 11 159 17 3 3 -38 3 -91 1 -54 -3 -98 -1 -98 3 0
5 44 9 98 9 53 0 102 4 109 8 6 4 -40 5 -103 3 -69 -2 -114 1 -114 7 0 5 38 9
89 8 53 -1 94 3 101 10 8 8 -1 11 -32 12 -23 1 -45 -3 -49 -9 -4 -7 -12 -8
-20 -3 -8 4 -34 8 -59 9 -51 1 -60 14 -36 60 11 21 12 31 4 36 -7 4 -4 9 8 12
10 2 -10 5 -46 4 -36 0 -55 -2 -44 -4 16 -3 20 -9 17 -24 -3 -10 0 -25 6 -33
8 -9 8 -21 2 -37 -5 -13 -10 -18 -10 -11 -1 6 -4 12 -9 12 -4 0 -6 -18 -4 -39
4 -39 3 -40 -40 -51 -129 -35 -383 -90 -395 -86 -8 3 -11 1 -8 -4 3 -6 0 -10
-9 -10 -8 0 -23 -3 -33 -6 -15 -5 -15 -4 -3 5 10 7 11 11 3 11 -22 0 -14 18
10 22 23 3 27 22 4 24 -34 3 -27 8 28 20 l60 13 -68 -4 c-51 -3 -67 -1 -64 8
2 7 16 11 31 10 15 -1 24 2 21 7 -4 6 -14 10 -23 11 -14 0 -14 2 -2 6 8 4 20
12 27 18 9 10 4 14 -27 19 -22 3 -40 11 -40 17 0 7 9 9 23 5 13 -3 36 -1 52 3
27 8 24 9 -22 10 -29 1 -53 4 -53 9 0 4 32 6 71 5 39 0 92 3 117 7 l47 9 -60
-1 c-108 -3 -175 2 -175 11 0 5 10 12 23 14 l22 4 -22 2 c-26 1 -30 23 -8 41
13 11 13 15 3 21 -8 5 21 10 67 11 l80 2 -70 3 c-38 2 -74 8 -79 14 -6 6 -6 9
2 9 7 0 12 11 12 24 0 19 6 26 28 29 27 4 27 4 -3 4 -16 1 -35 1 -42 2 -6 1
-13 13 -15 29 -3 27 -4 27 -83 30 -44 2 -97 -2 -119 -8 -27 -8 -42 -8 -49 -1
-7 7 -62 10 -152 9 l-140 -2 145 -6z m353 -6 c27 -5 37 -11 37 -25 0 -15 -7
-19 -37 -18 -21 0 -56 3 -78 7 l-40 7 25 18 c27 19 37 20 93 11z m40 -60 c15
-3 27 -10 27 -16 0 -7 -26 -8 -77 -4 -91 8 -113 14 -113 27 0 10 94 6 163 -7z
m6 -50 c12 -11 -13 -13 -82 -8 -48 5 -77 11 -77 19 0 8 20 9 78 2 42 -5 79
-11 81 -13z m-60 -20 c41 -5 61 -11 61 -20 0 -16 -26 -17 -107 -8 -35 5 -53
11 -53 20 0 16 12 17 99 8z m44 -53 c5 -5 7 -30 5 -57 -2 -36 -7 -49 -18 -47
-8 1 -41 4 -72 8 -32 3 -58 11 -58 16 0 5 8 9 18 9 16 1 16 1 0 14 -20 14 -24
36 -8 36 14 0 12 27 -2 34 -7 3 19 3 57 0 39 -3 74 -9 78 -13z m611 -32 c-3
-5 -10 -7 -15 -3 -5 3 -7 10 -3 15 3 5 10 7 15 3 5 -3 7 -10 3 -15z m-641 -85
c40 -4 57 -11 57 -21 0 -11 -10 -13 -47 -8 -114 15 -123 17 -123 32 0 11 7 13
28 9 15 -3 53 -8 85 -12z m645 -26 c-2 -6 -10 -14 -16 -16 -7 -2 -10 2 -6 12
7 18 28 22 22 4z m-630 -24 c14 -3 22 -12 22 -25 0 -17 -5 -19 -32 -15 -18 3
-54 8 -80 11 -39 5 -48 10 -48 26 0 19 4 20 58 14 31 -3 67 -8 80 -11z m25
-54 c24 0 27 -4 27 -35 0 -31 -3 -35 -37 -44 -21 -6 -47 -11 -57 -11 -11 0
-36 -19 -58 -42 l-38 -41 0 93 0 93 68 -6 c37 -4 79 -7 95 -7z m602 -188 c-9
-10 -10 2 -5 93 l5 90 3 -89 c1 -49 0 -91 -3 -94z m-1555 33 c0 -14 -4 -25
-10 -25 -5 0 -10 11 -10 25 0 14 5 25 10 25 6 0 10 -11 10 -25z m1573 -72
c-13 -2 -33 -2 -45 0 -13 2 -3 4 22 4 25 0 35 -2 23 -4z m-63 -159 c0 -14 -38
1 -53 21 l-18 25 36 -21 c19 -12 35 -23 35 -25z m-93 11 c-9 -8 -22 -15 -29
-15 -7 0 -2 9 12 20 28 21 40 19 17 -5z m192 11 c10 -12 8 -15 -11 -19 -22 -4
-22 -4 2 -6 18 -1 31 -12 48 -41 13 -22 20 -46 16 -52 -4 -6 -3 -8 3 -5 9 5
63 -78 63 -97 0 -12 -98 -6 -102 6 -5 14 -43 -22 -91 -85 -27 -36 -29 -37 -97
-37 l-69 0 -41 60 c-44 64 -66 111 -50 107 5 -1 21 16 34 38 30 48 35 22 6
-28 l-20 -34 42 -64 43 -64 55 -3 55 -2 38 58 c20 32 37 63 37 69 0 6 -11 27
-25 47 -28 42 -23 73 6 35 14 -19 20 -22 30 -11 11 10 10 12 -4 12 -9 0 -17 5
-17 10 0 6 21 11 48 12 l47 2 -47 3 c-47 4 -48 5 -48 38 0 26 -5 35 -22 41
-21 7 -20 9 12 15 19 3 38 7 41 8 4 0 12 -5 18 -13z m-114 -46 c14 -5 23 -14
20 -20 -3 -5 -1 -10 5 -10 7 0 10 -6 7 -12 -2 -7 -10 -12 -17 -10 -7 1 -2 -14
11 -35 13 -21 27 -46 33 -55 8 -13 1 -29 -27 -72 -37 -55 -38 -56 -86 -56
l-49 0 -40 64 -41 65 30 40 c17 25 26 47 23 58 -5 15 -4 15 5 3 8 -12 11 -12
17 3 8 21 82 24 104 5 12 -11 12 -10 1 5 -10 12 -27 17 -62 17 -27 0 -49 5
-49 10 0 13 81 13 115 0z m-184 -63 c-10 -9 -11 -8 -5 6 3 10 9 15 12 12 3 -3
0 -11 -7 -18z m1029 -17 c0 -5 -2 -10 -4 -10 -3 0 -8 5 -11 10 -3 6 -1 10 4
10 6 0 11 -4 11 -10z m-1049 -23 c-10 -9 -11 -8 -5 6 3 10 9 15 12 12 3 -3 0
-11 -7 -18z m-26 -57 c3 -5 1 -10 -4 -10 -6 0 -11 5 -11 10 0 6 2 10 4 10 3 0
8 -4 11 -10z m30 -40 c4 -6 -8 -10 -29 -10 -20 0 -36 5 -36 10 0 6 13 10 29
10 17 0 33 -4 36 -10z m305 0 c0 -5 -5 -10 -11 -10 -5 0 -7 5 -4 10 3 6 8 10
11 10 2 0 4 -4 4 -10z m145 0 c4 -6 -13 -10 -44 -10 -27 0 -53 5 -56 10 -4 6
13 10 44 10 27 0 53 -4 56 -10z m-431 -29 c4 -5 -19 -11 -49 -13 -52 -3 -63 0
-48 15 10 10 91 8 97 -2z m276 -1 c-20 -13 -33 -13 -25 0 3 6 14 10 23 10 15
0 15 -2 2 -10z m165 0 c-3 -5 -31 -10 -61 -10 -34 0 -53 4 -49 10 3 6 31 10
61 10 34 0 53 -4 49 -10z m-1302 -17 c-7 -2 -21 -2 -30 0 -10 3 -4 5 12 5 17
0 24 -2 18 -5z m-60 -10 c-7 -2 -19 -2 -25 0 -7 3 -2 5 12 5 14 0 19 -2 13 -5z
m940 -8 c1 -6 -29 -11 -73 -13 -48 -2 -71 0 -65 7 19 18 133 23 138 6z m252 5
c-3 -5 -15 -10 -26 -10 -11 0 -17 5 -14 10 3 6 15 10 26 10 11 0 17 -4 14 -10z
m150 0 c-7 -12 -49 -12 -85 0 -19 6 -11 8 33 9 36 1 56 -3 52 -9z m-1158 -6
c-3 -3 -12 -4 -19 -1 -8 3 -5 6 6 6 11 1 17 -2 13 -5z m-82 -14 c-3 -5 -14
-10 -23 -10 -15 0 -15 2 -2 10 20 13 33 13 25 0z m284 -4 c-2 -2 -17 -6 -34
-9 l-30 -6 30 13 c26 12 47 13 34 2z m54 7 c-7 -2 -21 -2 -30 0 -10 3 -4 5 12
5 17 0 24 -2 18 -5z m81 -4 c-3 -5 -14 -9 -25 -9 -10 0 -19 4 -19 9 0 5 11 9
25 9 13 0 22 -4 19 -9z m46 7 c0 -2 -7 -6 -15 -10 -8 -3 -15 -1 -15 4 0 6 7
10 15 10 8 0 15 -2 15 -4z m630 -17 c0 -6 7 -9 15 -5 8 3 15 1 15 -4 0 -6 -18
-10 -40 -10 -29 0 -40 4 -40 15 0 9 9 15 25 15 14 0 25 -5 25 -11z m140 1 c0
-5 -11 -10 -25 -10 -14 0 -25 5 -25 10 0 6 11 10 25 10 14 0 25 -4 25 -10z
m40 0 c0 -5 -5 -10 -11 -10 -5 0 -7 5 -4 10 3 6 8 10 11 10 2 0 4 -4 4 -10z
m-1357 -7 c-7 -2 -19 -2 -25 0 -7 3 -2 5 12 5 14 0 19 -2 13 -5z m184 1 c-3
-3 -12 -4 -19 -1 -8 3 -5 6 6 6 11 1 17 -2 13 -5z m93 -4 c0 -5 -12 -10 -27
-9 l-28 1 25 8 c14 4 26 8 28 9 1 1 2 -3 2 -9z m540 6 c0 -2 -9 -6 -20 -9 -11
-3 -20 -1 -20 4 0 5 9 9 20 9 11 0 20 -2 20 -4z m90 -11 c0 -8 -8 -15 -18 -15
-10 0 -19 7 -19 15 0 8 9 15 19 15 10 0 18 -7 18 -15z m-150 -15 c0 -5 -16
-10 -35 -10 -19 0 -35 5 -35 10 0 6 16 10 35 10 19 0 35 -4 35 -10z m600 -6
c0 -8 -5 -12 -10 -9 -6 4 -8 11 -5 16 9 14 15 11 15 -7z m-140 -9 c0 -8 9 -15
20 -15 11 0 20 -7 20 -15 0 -11 -11 -15 -39 -15 -42 0 -64 15 -34 23 14 4 13
5 -4 6 -36 2 -29 31 7 31 20 0 30 -5 30 -15z m-335 -15 c-19 -21 -60 -27 -70
-10 -4 6 5 10 19 10 14 0 26 5 26 10 0 6 10 10 22 10 20 0 21 -1 3 -20z m-157
-17 c-3 -26 -38 -48 -38 -24 0 6 8 12 18 12 16 1 16 2 0 6 -25 6 -22 33 3 33
16 0 20 -5 17 -27z m632 3 c0 -7 -8 -20 -17 -27 -10 -7 -15 -10 -11 -5 4 5 3
17 -3 27 -8 16 -6 19 11 19 11 0 20 -6 20 -14z m-1430 -3 c0 -5 -21 -18 -45
-31 l-45 -22 0 30 c0 29 2 30 45 30 25 0 45 -3 45 -7z m239 -3 c16 0 -121 -69
-199 -100 -25 -10 -62 -26 -83 -35 -36 -15 -38 -15 -28 2 17 32 60 63 89 63
27 0 70 20 45 20 -27 0 -11 15 18 17 18 1 48 11 68 22 20 11 45 18 56 16 11
-3 27 -5 34 -5z m676 -20 c-3 -5 -17 -10 -31 -10 -14 0 -22 4 -19 10 3 6 17
10 31 10 14 0 22 -4 19 -10z m405 -10 c0 -5 -9 -10 -21 -10 -13 0 -18 -4 -13
-12 4 -7 3 -9 -1 -5 -19 17 -13 37 11 37 13 0 24 -4 24 -10z m-524 -37 c-1
-18 -7 -29 -18 -31 -10 -2 -18 1 -18 7 0 6 8 12 18 12 16 1 16 2 0 6 -24 6
-23 33 1 33 13 0 18 -7 17 -27z m69 -3 c-16 -16 -31 -27 -34 -24 -3 3 -1 8 5
12 6 4 13 15 17 25 3 9 14 17 24 17 13 0 11 -6 -12 -30z m215 21 c0 -5 -9 -11
-19 -14 -14 -3 -18 -1 -14 9 6 15 33 19 33 5z m-1570 -16 c0 -8 -4 -15 -10
-15 -5 0 -10 6 -10 13 0 8 -4 7 -10 -3 -5 -8 -10 -10 -10 -4 0 14 10 24 27 24
7 0 13 -7 13 -15z m1833 5 c6 0 2 -7 -9 -15 -18 -14 -18 -14 2 -9 12 3 25 1
29 -6 5 -7 -2 -10 -22 -7 -15 2 -28 8 -28 13 0 5 -4 15 -9 23 -7 11 -5 13 8 8
10 -4 23 -7 29 -7z m85 -24 c2 -34 -11 -56 -22 -37 -4 5 -2 12 3 15 5 4 8 18
5 31 -2 14 -1 25 4 25 4 0 9 -15 10 -34z m-963 13 c-22 -4 -65 -7 -95 -7 l-55
1 65 7 c36 4 79 7 95 7 24 1 22 -1 -10 -8z m-975 -24 c0 -9 -48 -36 -73 -41
-14 -2 -29 0 -32 6 -3 6 4 10 17 10 13 1 37 7 53 15 37 17 35 16 35 10z m1039
-16 c42 1 73 -1 69 -4 -12 -13 -331 -19 -324 -7 4 7 34 10 81 7 47 -2 75 0 75
6 0 6 5 7 11 3 7 -4 46 -6 88 -5z m561 7 c0 -7 -40 -14 -44 -7 -3 4 6 8 20 9
13 1 24 0 24 -2z m68 -3 c-10 -2 -28 -2 -40 0 -13 2 -5 4 17 4 22 1 32 -1 23
-4z m-370 -15 c-6 -18 -28 -21 -28 -4 0 9 7 16 16 16 9 0 14 -5 12 -12z m535
-15 c-29 -2 -77 -2 -105 0 -29 2 -6 3 52 3 58 0 81 -1 53 -3z m-546 -136 c2
-171 5 -207 14 -213 5 -3 6 -25 2 -49 -4 -29 -2 -45 5 -45 10 0 7 -43 -4 -62
-3 -4 -2 -14 3 -20 4 -7 8 -32 8 -55 0 -38 -3 -43 -22 -43 -22 0 -22 0 -25
228 -3 260 0 382 10 382 4 0 8 -55 9 -123z m653 -58 c0 -151 -2 -180 -13 -170
-8 6 -16 9 -18 7 -2 -3 -3 31 -1 75 2 70 0 79 -15 79 -17 1 -17 2 -1 13 10 8
16 26 16 48 -2 51 15 129 28 129 2 0 4 -82 4 -181z m625 161 c3 -6 -4 -10 -17
-10 -18 0 -20 2 -8 10 19 12 18 12 25 0z m-852 -7 c-7 -2 -19 -2 -25 0 -7 3
-2 5 12 5 14 0 19 -2 13 -5z m110 0 c-7 -2 -21 -2 -30 0 -10 3 -4 5 12 5 17 0
24 -2 18 -5z m590 0 c-7 -2 -19 -2 -25 0 -7 3 -2 5 12 5 14 0 19 -2 13 -5z
m-1278 -13 c-4 -7 -68 -8 -191 -4 l-184 7 -2 -274 -3 -274 -2 265 c-2 146 -1
270 2 277 3 10 51 13 195 13 128 0 189 -3 185 -10z m1023 3 c-38 -2 -98 -2
-135 0 -38 2 -7 3 67 3 74 0 105 -1 68 -3z m229 -9 c-3 -3 -12 -4 -19 -1 -8 3
-5 6 6 6 11 1 17 -2 13 -5z m46 -1 c-7 -2 -19 -2 -25 0 -7 3 -2 5 12 5 14 0
19 -2 13 -5z m-120 -20 c-18 -2 -48 -2 -65 0 -18 2 -4 4 32 4 36 0 50 -2 33
-4z m44 -350 c-1 -65 -3 -12 -3 117 0 129 2 182 3 118 2 -65 2 -171 0 -235z
m238 327 c3 -5 -1 -10 -10 -10 -9 0 -13 5 -10 10 3 6 8 10 10 10 2 0 7 -4 10
-10z m-1185 -181 c0 -117 -10 -159 -37 -159 -11 0 -14 3 -7 8 14 9 27 72 15
72 -14 0 -23 33 -11 40 13 8 10 32 -5 42 -5 4 -2 10 8 14 10 3 17 17 17 31 0
20 -4 23 -20 18 -22 -7 -26 6 -10 36 8 15 7 19 -5 19 -8 0 -15 3 -15 8 0 4 -3
18 -6 32 -6 23 -3 22 35 -15 l41 -39 0 -107z m570 166 c0 -8 -4 -15 -10 -15
-5 0 -7 7 -4 15 4 8 8 15 10 15 2 0 4 -7 4 -15z m-2054 -82 c-3 -3 -13 -2 -23
2 -17 8 -17 8 0 12 13 3 17 11 14 25 -3 11 -3 27 1 36 4 11 8 1 10 -27 2 -23
1 -45 -2 -48z m2679 67 c3 -5 2 -10 -4 -10 -5 0 -13 5 -16 10 -3 6 -2 10 4 10
5 0 13 -4 16 -10z m-1085 -45 c16 -22 19 -45 6 -45 -9 0 -12 7 -9 20 3 11 0
20 -6 20 -6 0 -10 12 -10 28 1 20 2 22 6 7 3 -11 8 -24 13 -30z m110 -105 c0
-93 -4 -150 -10 -150 -6 0 -10 54 -10 143 0 126 3 157 17 157 2 0 3 -67 3
-150z m187 108 c-7 -14 -12 -38 -11 -54 0 -16 2 -43 2 -61 1 -18 8 -33 16 -35
12 -3 12 -10 -1 -47 -13 -38 -13 -47 -2 -55 8 -6 15 -29 17 -50 1 -22 8 -44
15 -48 6 -4 10 -8 7 -9 -41 -8 -60 -8 -60 -2 0 5 -21 8 -47 9 -25 0 -42 -1
-36 -3 6 -2 9 -12 6 -22 -4 -15 -22 -20 -101 -29 l-97 -10 90 6 c50 3 125 6
167 6 65 1 78 -2 82 -16 4 -17 -9 -18 -177 -18 -100 0 -213 -3 -252 -7 -63 -6
-69 -5 -57 9 10 13 10 17 0 21 -10 3 -10 7 -1 17 6 7 9 19 6 26 -4 11 6 14 45
14 41 0 50 3 48 18 -1 15 12 17 127 20 82 2 127 -1 127 -8 0 -14 32 -12 54 5
15 11 17 22 11 67 -3 29 -8 99 -11 156 -5 98 -4 104 18 122 27 22 34 13 15
-22z m-160 10 c-3 -8 -6 -5 -6 6 -1 11 2 17 5 13 3 -3 4 -12 1 -19z m39 -24
c-4 -14 -11 -22 -16 -19 -6 3 -10 1 -10 -6 0 -7 -3 -9 -7 -5 -5 4 -1 13 8 19
17 13 19 16 20 45 0 11 2 12 6 4 3 -7 2 -24 -1 -38z m295 32 c-4 -6 -11 -18
-14 -26 -3 -8 -5 -3 -4 11 1 14 7 26 14 26 8 0 9 -5 4 -11z m-444 -18 c-3 -8
-6 -5 -6 6 -1 11 2 17 5 13 3 -3 4 -12 1 -19z m210 -25 c-3 -10 -5 -2 -5 17 0
19 2 27 5 18 2 -10 2 -26 0 -35z m-287 -100 c0 -75 -2 -134 -5 -132 -9 10 -9
269 0 269 3 0 5 -61 5 -137z m-940 -113 c0 -127 -4 -200 -10 -200 -6 0 -10 71
-10 193 0 170 3 207 17 207 2 0 3 -90 3 -200z m990 160 c0 -5 -2 -10 -4 -10
-3 0 -8 5 -11 10 -3 6 -1 10 4 10 6 0 11 -4 11 -10z m177 4 c-3 -3 -12 -4 -19
-1 -8 3 -5 6 6 6 11 1 17 -2 13 -5z m60 -137 c-2 -23 -3 -1 -3 48 0 50 1 68 3
42 2 -26 2 -67 0 -90z m263 8 c3 -44 3 -111 0 -150 l-5 -70 -32 -3 -33 -3 0
150 c0 134 2 150 18 154 42 12 47 5 52 -78z m-1564 -232 c-3 -7 -13 -13 -22
-13 -14 0 -15 16 -11 136 3 101 8 139 18 145 12 7 14 -15 17 -123 1 -73 0
-138 -2 -145z m153 120 c2 -82 -1 -123 -8 -123 -7 0 -11 48 -10 143 1 170 15
154 18 -20z m-57 9 c1 -67 -2 -125 -5 -129 -4 -3 -7 54 -7 127 0 73 2 131 5
128 3 -2 6 -59 7 -126z m1388 -12 c0 -67 -4 -110 -10 -110 -5 0 -10 19 -10 43
0 24 -6 52 -14 63 -17 21 -11 57 13 91 9 12 17 23 19 23 1 0 2 -49 2 -110z
m-160 40 c0 -6 -53 -10 -139 -10 -76 0 -159 -3 -185 -6 -30 -5 -46 -3 -46 4 0
12 63 17 258 20 69 1 112 -2 112 -8z m-370 -49 c0 -5 12 -12 28 -14 15 -2 1
-5 -30 -6 -47 -1 -56 2 -52 14 7 16 54 21 54 6z m950 -91 c0 -5 -4 -10 -10
-10 -5 0 -10 5 -10 10 0 6 5 10 10 10 6 0 10 -4 10 -10z m-70 -22 l75 -1 -75
-7 c-90 -9 -233 -10 -160 -1 l45 5 -45 7 c-35 5 -31 6 20 3 36 -2 99 -5 140
-6z m-1604 -5 c-4 -5 -33 -11 -64 -15 l-57 -6 64 1 c46 2 66 -2 69 -11 3 -11
-6 -12 -44 -7 -155 20 -152 25 25 44 8 0 11 -2 7 -6z m1193 -7 c-2 -2 -96 -6
-209 -10 -137 -4 -200 -3 -190 4 14 9 409 15 399 6z m-1426 -13 c-7 -2 -19 -2
-25 0 -7 3 -2 5 12 5 14 0 19 -2 13 -5z m312 -2 c3 -5 1 -12 -5 -16 -5 -3 -10
1 -10 9 0 18 6 21 15 7z m98 -3 c-7 -12 -83 -9 -83 2 0 6 18 10 44 8 24 -2 42
-6 39 -10z m447 8 c0 -2 -9 -6 -20 -9 -11 -3 -20 -1 -20 4 0 5 9 9 20 9 11 0
20 -2 20 -4z m700 -28 c0 -5 -7 -8 -15 -8 -15 0 -20 21 -8 33 7 7 23 -11 23
-25z m57 13 c0 -11 -5 -17 -9 -15 -11 7 -10 34 1 34 6 0 9 -9 8 -19z m293 5
c0 -9 -23 -15 -82 -19 -140 -11 -198 -9 -198 8 0 11 19 15 88 18 48 1 111 4
140 5 38 1 52 -2 52 -12z m-480 -16 c0 -19 -7 -20 -206 -20 -160 0 -205 3
-202 13 4 12 101 19 331 25 71 2 77 0 77 -18z m90 5 c0 -8 -9 -15 -20 -15 -11
0 -20 7 -20 15 0 8 9 15 20 15 11 0 20 -7 20 -15z m-785 -4 c-9 -8 -157 -17
-180 -11 -16 5 74 17 135 18 32 1 50 -2 45 -7z m205 -11 c0 -11 -7 -20 -15
-20 -8 0 -15 9 -15 20 0 11 7 20 15 20 8 0 15 -9 15 -20z m-520 0 c0 -6 -28
-9 -67 -9 -56 1 -62 3 -33 9 53 11 100 11 100 0z m435 0 c3 -5 -3 -10 -14 -10
-12 0 -21 5 -21 10 0 6 6 10 14 10 8 0 18 -4 21 -10z m151 -17 c-10 -10 -19 5
-10 18 6 11 8 11 12 0 2 -7 1 -15 -2 -18z m-276 -2 c-16 -9 -170 -22 -170 -15
0 3 10 9 23 14 28 11 168 13 147 1z m-326 -10 c4 -5 -19 -11 -50 -13 -53 -3
-79 4 -52 15 22 9 97 7 102 -2z m-334 -26 c61 -9 203 -9 295 -1 33 3 52 3 43
0 -10 -3 -18 -12 -18 -19 0 -7 -13 -16 -30 -20 -16 -4 -30 -11 -30 -16 0 -5
-10 -10 -22 -10 -13 -1 -3 -5 22 -9 79 -14 242 -12 343 4 95 16 221 13 232 -4
2 -4 -100 -13 -228 -20 -212 -11 -241 -11 -339 5 -60 10 -108 22 -108 27 0 5
-4 7 -8 4 -7 -4 -133 12 -402 52 -44 7 -44 7 25 12 88 6 155 5 225 -5z m870
-7 c18 -20 19 -24 5 -34 -8 -6 -15 -17 -15 -24 0 -9 -4 -9 -12 -3 -20 16 -187
33 -255 26 -44 -4 -63 -2 -63 5 0 8 17 10 48 7 45 -4 44 -3 -13 9 -33 8 -62
15 -65 16 -15 8 93 17 212 19 130 1 138 0 158 -21z m61 -1 c-10 -9 -11 -8 -5
6 3 10 9 15 12 12 3 -3 0 -11 -7 -18z m284 -25 c94 -9 170 -20 170 -24 0 -4
-56 -10 -125 -12 -69 -2 -162 -8 -208 -12 -80 -7 -83 -6 -89 15 -3 11 -9 21
-14 21 -14 0 -11 28 4 33 6 2 30 2 52 0 22 -3 117 -12 210 -21z m-268 -38 c-3
-3 -12 -4 -19 -1 -8 3 -5 6 6 6 11 1 17 -2 13 -5z m663 -38 c16 -25 30 -47 30
-50 0 -9 -48 -7 -54 3 -3 4 6 6 21 3 18 -3 24 -1 19 7 -4 6 -18 11 -31 11 -15
0 -31 11 -44 29 -27 37 -26 41 4 41 17 0 32 -12 55 -44z m-327 27 c-7 -2 -21
-2 -30 0 -10 3 -4 5 12 5 17 0 24 -2 18 -5z m117 -13 c0 -5 -46 -12 -102 -16
-70 -5 -95 -10 -78 -15 14 -4 -18 -5 -70 -3 -68 3 -88 1 -70 -6 19 -7 13 -8
-25 -4 -88 10 -74 27 28 33 41 2 62 7 49 10 -12 3 43 7 123 7 80 1 145 -2 145
-6z m-650 -14 c0 -7 3 -7 8 1 5 9 22 10 57 4 28 -5 41 -10 30 -11 -11 -1 -29
-3 -40 -4 -11 -1 -30 -3 -42 -4 -13 -1 -23 -7 -23 -13 0 -7 24 -9 70 -6 52 4
72 1 81 -9 11 -13 5 -18 -15 -15 -5 1 -15 -7 -23 -19 -15 -22 -38 -26 -48 -9
-11 17 3 23 20 9 13 -11 14 -10 9 4 -4 10 -18 16 -41 16 -23 0 -41 8 -57 25
-13 14 -30 25 -37 26 -17 1 19 16 38 16 7 0 13 -5 13 -11z m239 4 c-8 -6 -8
-13 0 -27 5 -11 7 -24 3 -28 -4 -5 -1 -5 7 0 10 6 12 2 7 -16 -3 -13 -3 -18 0
-11 6 13 24 7 24 -9 0 -6 -15 -9 -32 -7 -28 2 -32 7 -30 26 2 14 -2 22 -12 22
-9 0 -22 14 -31 30 l-16 30 46 -2 c25 0 41 -4 34 -8z m-439 -14 c0 -10 -12
-14 -42 -14 -24 1 -55 -2 -70 -5 -20 -4 -28 -2 -28 8 0 10 16 13 60 12 33 -1
60 1 60 6 0 4 5 7 10 7 6 0 10 -6 10 -14z m90 0 c-6 -8 -18 -12 -27 -9 -8 3
-19 0 -23 -7 -10 -17 -31 -4 -23 15 3 10 19 15 45 15 34 0 39 -2 28 -14z
m-1204 -6 c13 0 24 -4 24 -9 0 -10 -68 3 -78 15 -4 4 1 4 11 1 10 -4 30 -7 43
-7z m1927 3 c-7 -2 -21 -2 -30 0 -10 3 -4 5 12 5 17 0 24 -2 18 -5z m-963 -7
c0 -2 -7 -6 -15 -10 -8 -3 -15 -1 -15 4 0 6 7 10 15 10 8 0 15 -2 15 -4z
m1034 -11 c-4 -11 0 -15 17 -15 12 0 20 -2 18 -4 -2 -2 -98 -12 -214 -20 -200
-16 -210 -16 -223 1 -12 17 -7 19 85 26 54 4 139 11 188 16 138 13 135 13 129
-4z m-917 -19 c-1 -4 8 -10 21 -12 13 -2 21 0 18 5 -4 5 8 4 24 -2 26 -10 28
-13 16 -23 -19 -13 -10 -24 18 -23 20 0 20 1 2 8 -13 5 -16 10 -8 15 6 3 9 13
6 20 -3 8 4 16 15 19 14 3 21 0 21 -9 0 -8 -4 -14 -10 -14 -5 0 -10 -5 -10
-11 0 -6 9 -9 19 -6 12 3 22 -1 25 -10 4 -11 10 -12 19 -6 6 6 27 9 45 7 17
-1 32 2 32 7 0 8 -11 10 -67 13 -12 1 -24 4 -27 9 -3 4 -3 5 0 2 4 -2 15 0 26
6 21 11 91 -8 82 -23 -3 -4 0 -8 5 -8 6 0 11 -4 11 -9 0 -8 -203 -28 -225 -22
-5 2 -15 4 -22 5 -7 1 -16 6 -20 11 -4 4 -3 6 2 2 6 -3 17 -2 25 4 13 7 12 9
-2 9 -10 0 -18 5 -18 12 0 6 -7 3 -15 -8 -15 -18 -15 -18 -8 0 4 13 3 17 -5
12 -6 -3 -13 -2 -17 4 -10 16 -42 12 -49 -6 -4 -11 -10 -13 -19 -6 -16 12 -47
12 -47 -2 0 -6 -5 -5 -12 2 -16 16 -8 22 37 27 21 3 40 7 42 9 7 7 71 0 70 -8z
m-128 -42 c10 12 16 12 25 4 20 -19 15 -40 -7 -34 -11 3 -28 1 -37 -4 -12 -6
-20 -3 -30 13 -12 20 -12 21 3 8 10 -8 17 -9 17 -3 0 6 -4 14 -10 17 -5 3 -10
12 -10 18 0 7 9 2 18 -11 16 -21 20 -22 31 -8z m515 17 c3 -5 -6 -11 -21 -14
-26 -5 -26 -4 -8 9 22 17 22 17 29 5z m783 3 c-3 -3 -12 -4 -19 -1 -8 3 -5 6
6 6 11 1 17 -2 13 -5z m-1207 -24 c-5 -10 -6 -20 -3 -24 3 -3 -1 -6 -10 -6 -9
0 -19 5 -22 10 -3 6 1 10 10 10 10 0 15 6 12 13 -3 8 1 14 8 14 10 0 11 -5 5
-17z m1110 8 c72 -17 67 -26 -6 -11 -43 9 -71 10 -77 4 -6 -6 8 -12 39 -16 65
-9 75 -13 39 -16 l-30 -2 30 -7 c24 -6 21 -7 -14 -4 -24 2 -62 5 -85 5 -39 1
-40 2 -11 9 27 7 27 8 5 8 -14 0 -36 -3 -50 -7 l-25 -7 25 -6 c14 -4 68 -12
120 -18 52 -6 104 -16 115 -21 11 -5 47 -19 80 -30 76 -25 28 -17 -95 16 -52
14 -131 28 -175 30 -44 2 -125 7 -180 10 -98 5 -346 33 -352 39 -2 2 79 10
179 18 214 18 405 20 468 6z m200 -8 c13 -9 13 -10 0 -10 -8 0 -22 5 -30 10
-13 9 -13 10 0 10 8 0 22 -5 30 -10z m-100 -30 c8 -5 11 -10 5 -10 -5 0 -17 5
-25 10 -8 5 -10 10 -5 10 6 0 17 -5 25 -10z m-2134 -58 c-32 -2 -63 1 -67 5
-4 4 22 6 59 3 l67 -5 -59 -3z m342 11 c-10 -2 -26 -2 -35 0 -10 3 -2 5 17 5
19 0 27 -2 18 -5z m1599 1 c-3 -3 -12 -4 -19 -1 -8 3 -5 6 6 6 11 1 17 -2 13
-5z m-1704 -11 c-18 -2 -48 -2 -65 0 -18 2 -4 4 32 4 36 0 50 -2 33 -4z m184
1 c-3 -3 -12 -4 -19 -1 -8 3 -5 6 6 6 11 1 17 -2 13 -5z m1570 0 c-3 -3 -12
-4 -19 -1 -8 3 -5 6 6 6 11 1 17 -2 13 -5z m-2124 -11 c-7 -2 -19 -2 -25 0 -7
3 -2 5 12 5 14 0 19 -2 13 -5z m250 0 c-7 -2 -19 -2 -25 0 -7 3 -2 5 12 5 14
0 19 -2 13 -5z m2167 -13 c36 -10 54 -19 40 -19 -24 1 -136 37 -115 38 6 0 39
-8 75 -19z m-2357 3 c-7 -2 -19 -2 -25 0 -7 3 -2 5 12 5 14 0 19 -2 13 -5z
m292 -9 c-49 -18 -41 -17 -95 -14 l-45 2 54 9 c30 5 57 12 60 14 2 3 18 5 35
5 31 -1 31 -1 -9 -16z m-298 -10 c-3 -3 -12 -4 -19 -1 -8 3 -5 6 6 6 11 1 17
-2 13 -5z m151 -21 c-10 -2 -26 -2 -35 0 -10 3 -2 5 17 5 19 0 27 -2 18 -5z
m52 -3 c0 -5 -7 -10 -16 -10 -8 0 -12 5 -9 10 3 6 10 10 16 10 5 0 9 -4 9 -10z
m-132 -7 c-10 -2 -28 -2 -40 0 -13 2 -5 4 17 4 22 1 32 -1 23 -4z m2399 1 c-3
-3 -12 -4 -19 -1 -8 3 -5 6 6 6 11 1 17 -2 13 -5z m60 -10 c-3 -3 -12 -4 -19
-1 -8 3 -5 6 6 6 11 1 17 -2 13 -5z m-2040 -30 c-3 -3 -12 -4 -19 -1 -8 3 -5
6 6 6 11 1 17 -2 13 -5z m-212 -15 c14 -6 3 -7 -34 -4 -30 3 -57 8 -60 10 -8
9 74 4 94 -6z m230 -9 c3 -5 1 -10 -4 -10 -6 0 -11 5 -11 10 0 6 2 10 4 10 3
0 8 -4 11 -10z m-128 -6 c-3 -3 -12 -4 -19 -1 -8 3 -5 6 6 6 11 1 17 -2 13 -5z
m618 -3 c3 -5 30 -7 60 -4 45 5 56 3 61 -11 5 -13 20 -16 78 -14 l71 1 -60 7
c-65 7 -65 13 0 11 30 -1 36 1 25 8 -11 8 -5 11 25 10 22 0 34 -3 27 -6 -9 -3
-7 -10 9 -24 22 -19 22 -19 -57 -20 -125 -3 -269 2 -306 11 l-33 7 38 8 c20 4
37 11 37 16 0 12 17 12 25 0z m698 2 c-18 -2 -48 -2 -65 0 -18 2 -4 4 32 4 36
0 50 -2 33 -4z m-1358 -12 c37 -6 17 -7 -71 -7 -67 1 -120 4 -117 9 5 9 121 8
188 -2z m1265 -12 c0 -11 -27 -12 -34 0 -3 4 -3 11 0 14 8 8 34 -3 34 -14z
m663 14 c-7 -2 -21 -2 -30 0 -10 3 -4 5 12 5 17 0 24 -2 18 -5z m-2170 -10
c-13 -2 -33 -2 -45 0 -13 2 -3 4 22 4 25 0 35 -2 23 -4z m154 -9 c-3 -3 -12
-4 -19 -1 -8 3 -5 6 6 6 11 1 17 -2 13 -5z m1910 -1 c-20 -2 -52 -2 -70 0 -17
2 0 4 38 4 39 0 53 -2 32 -4z m206 0 c-13 -2 -35 -2 -50 0 -16 2 -5 4 22 4 28
0 40 -2 28 -4z m-335 -10 c-10 -2 -26 -2 -35 0 -10 3 -2 5 17 5 19 0 27 -2 18
-5z m-1088 -13 c18 -12 2 -12 -25 0 -13 6 -15 9 -5 9 8 0 22 -4 30 -9z m1530
-6 c0 -2 -17 -4 -37 -3 -33 1 -35 2 -13 8 23 7 50 4 50 -5z"/>
<path d="M1120 2436 c0 -18 6 -19 35 -6 11 5 15 9 8 9 -6 1 -18 4 -27 7 -11 4
-16 1 -16 -10z"/>
<path d="M1118 2203 c7 -3 16 -2 19 1 4 3 -2 6 -13 5 -11 0 -14 -3 -6 -6z"/>
<path d="M1160 2198 c0 -4 14 -8 30 -8 17 0 30 2 30 4 0 2 -13 6 -30 8 -16 3
-30 1 -30 -4z"/>
<path d="M1877 1678 c10 -16 22 -24 31 -20 12 4 9 8 -9 16 -22 9 -19 10 26 16
l50 6 -57 4 -56 5 15 -27z"/>
<path d="M1948 1663 c12 -2 30 -2 40 0 9 3 -1 5 -23 4 -22 0 -30 -2 -17 -4z"/>
<path d="M1680 769 c-41 -3 -66 -7 -55 -9 11 -2 -2 -6 -30 -11 l-50 -7 55 4
c30 3 92 7 138 10 45 3 82 9 82 13 0 8 -32 9 -140 0z"/>
<path d="M838 553 c17 -2 47 -2 65 0 17 2 3 4 -33 4 -36 0 -50 -2 -32 -4z"/>
<path d="M845 531 c3 -5 -4 -12 -15 -14 -18 -4 -18 -5 2 -3 22 1 39 26 18 26
-6 0 -9 -4 -5 -9z"/>
<path d="M870 530 c0 -5 5 -10 11 -10 5 0 7 5 4 10 -3 6 -8 10 -11 10 -2 0 -4
-4 -4 -10z"/>
<path d="M2190 490 c0 -5 4 -10 9 -10 6 0 13 5 16 10 3 6 -1 10 -9 10 -9 0
-16 -4 -16 -10z"/>
<path d="M2000 346 c0 -2 9 -6 20 -9 11 -3 20 -1 20 4 0 5 -9 9 -20 9 -11 0
-20 -2 -20 -4z"/>
<path d="M1158 113 c6 -2 18 -2 25 0 6 3 1 5 -13 5 -14 0 -19 -2 -12 -5z"/>
<path d="M1260 2630 c0 -5 12 -10 26 -10 14 0 23 4 19 10 -3 6 -15 10 -26 10
-10 0 -19 -4 -19 -10z"/>
<path d="M1409 2628 c-9 -5 19 -7 75 -4 49 3 91 8 94 11 10 10 -155 3 -169 -7z"/>
<path d="M1592 2635 c4 -4 55 -9 115 -10 362 -11 542 -13 648 -6 106 6 90 8
-135 9 -140 0 -340 4 -445 8 -104 3 -187 3 -183 -1z"/>
<path d="M213 2623 c26 -2 68 -2 95 0 26 2 4 3 -48 3 -52 0 -74 -1 -47 -3z"/>
<path d="M410 2620 c13 -9 199 -15 189 -6 -2 2 -49 6 -104 10 -69 5 -95 3 -85
-4z"/>
<path d="M653 2613 c20 -2 54 -2 75 0 20 2 3 4 -38 4 -41 0 -58 -2 -37 -4z"/>
<path d="M770 2611 c0 -4 27 -7 59 -7 32 1 54 4 48 8 -15 9 -107 8 -107 -1z"/>
<path d="M250 2600 c121 -11 485 -21 476 -12 -4 4 -47 7 -94 8 -48 0 -172 3
-277 7 -127 4 -162 3 -105 -3z"/>
<path d="M918 2603 c7 -3 16 -2 19 1 4 3 -2 6 -13 5 -11 0 -14 -3 -6 -6z"/>
<path d="M1368 2603 c6 -2 18 -2 25 0 6 3 1 5 -13 5 -14 0 -19 -2 -12 -5z"/>
<path d="M1438 2603 c17 -2 47 -2 65 0 17 2 3 4 -33 4 -36 0 -50 -2 -32 -4z"/>
<path d="M1558 2603 c12 -2 30 -2 40 0 9 3 -1 5 -23 4 -22 0 -30 -2 -17 -4z"/>
<path d="M1633 2603 c9 -2 25 -2 35 0 9 3 1 5 -18 5 -19 0 -27 -2 -17 -5z"/>
<path d="M1703 2603 c9 -2 23 -2 30 0 6 3 -1 5 -18 5 -16 0 -22 -2 -12 -5z"/>
<path d="M1795 2600 c49 -8 422 -14 414 -6 -2 2 -107 6 -234 9 -137 3 -210 2
-180 -3z"/>
<path d="M2300 2599 l-65 -6 83 -1 c45 -1 82 2 82 6 0 9 -11 9 -100 1z"/>
<path d="M2448 2597 c31 -7 46 -7 54 1 9 9 -1 12 -42 11 l-55 -1 43 -11z"/>
<path d="M185 2578 c4 -11 -3 -13 -35 -10 -22 2 -40 0 -40 -6 0 -6 42 -9 103
-9 56 0 76 2 45 4 -32 2 -58 9 -58 14 0 6 8 8 18 5 23 -7 458 -20 452 -13 -3
2 -75 7 -160 11 -85 3 -194 9 -243 12 -73 5 -86 4 -82 -8z"/>
<path d="M753 2583 c9 -2 23 -2 30 0 6 3 -1 5 -18 5 -16 0 -22 -2 -12 -5z"/>
<path d="M900 2580 c36 -4 69 -3 74 2 6 4 -24 7 -65 6 l-74 -1 65 -7z"/>
<path d="M1540 2579 c-19 -3 36 -6 122 -6 87 0 155 3 152 6 -8 8 -230 8 -274
0z"/>
<path d="M1408 2573 c7 -3 16 -2 19 1 4 3 -2 6 -13 5 -11 0 -14 -3 -6 -6z"/>
<path d="M1453 2573 c9 -2 23 -2 30 0 6 3 -1 5 -18 5 -16 0 -22 -2 -12 -5z"/>
<path d="M1842 2575 c10 -11 272 -15 287 -6 9 6 -45 10 -139 10 -85 1 -151 -1
-148 -4z"/>
<path d="M2155 2569 c-5 -7 39 -8 142 -3 81 3 150 8 152 10 2 2 -61 4 -142 4
-91 0 -148 -4 -152 -11z"/>
<path d="M2488 2573 c12 -2 30 -2 40 0 9 3 -1 5 -23 4 -22 0 -30 -2 -17 -4z"/>
<path d="M50 2566 c0 -2 11 -6 25 -8 13 -3 22 -1 19 3 -5 9 -44 13 -44 5z"/>
<path d="M690 2567 c8 -7 225 -19 217 -11 -3 4 -55 9 -114 11 -59 3 -106 3
-103 0z"/>
<path d="M363 2553 c9 -2 23 -2 30 0 6 3 -1 5 -18 5 -16 0 -22 -2 -12 -5z"/>
<path d="M420 2549 c0 -5 5 -7 10 -4 6 3 10 8 10 11 0 2 -4 4 -10 4 -5 0 -10
-5 -10 -11z"/>
<path d="M1314 2548 c-3 -4 16 -8 42 -8 26 0 45 2 42 5 -9 9 -79 12 -84 3z"/>
<path d="M1423 2553 c9 -2 23 -2 30 0 6 3 -1 5 -18 5 -16 0 -22 -2 -12 -5z"/>
<path d="M1480 2552 c0 -4 16 -7 35 -7 46 -1 46 11 0 13 -19 1 -35 -2 -35 -6z"/>
<path d="M1560 2549 c0 -5 5 -7 10 -4 6 3 10 8 10 11 0 2 -4 4 -10 4 -5 0 -10
-5 -10 -11z"/>
<path d="M1593 2554 c3 -3 26 -6 52 -6 26 0 49 3 53 6 3 3 -21 6 -53 6 -32 0
-56 -3 -52 -6z"/>
<path d="M1710 2550 c0 -5 9 -10 19 -10 11 0 23 5 26 10 4 6 -5 10 -19 10 -14
0 -26 -4 -26 -10z"/>
<path d="M1778 2548 c13 -12 621 -14 609 -2 -4 4 -144 7 -311 8 -168 0 -302
-2 -298 -6z"/>
<path d="M2410 2550 c-12 -8 -10 -10 10 -9 14 0 34 4 45 9 17 7 16 9 -10 9
-16 0 -37 -4 -45 -9z"/>
<path d="M2498 2553 c7 -3 16 -2 19 1 4 3 -2 6 -13 5 -11 0 -14 -3 -6 -6z"/>
<path d="M5 2542 c6 -6 84 -13 180 -16 94 -3 222 -8 285 -11 77 -3 100 -1 70
4 -25 5 -121 11 -215 15 -93 3 -206 9 -250 12 -55 4 -77 3 -70 -4z"/>
<path d="M521 2546 c8 -8 149 -11 149 -4 0 5 -34 8 -77 8 -42 0 -74 -2 -72 -4z"/>
<path d="M693 2533 c9 -2 25 -2 35 0 9 3 1 5 -18 5 -19 0 -27 -2 -17 -5z"/>
<path d="M885 2530 c-3 -5 -1 -10 4 -10 6 0 11 5 11 10 0 6 -2 10 -4 10 -3 0
-8 -4 -11 -10z"/>
<path d="M928 2533 c7 -3 16 -2 19 1 4 3 -2 6 -13 5 -11 0 -14 -3 -6 -6z"/>
<path d="M2465 2530 c-8 -13 15 -13 35 0 12 8 11 10 -7 10 -12 0 -25 -4 -28
-10z"/>
<path d="M1298 2523 c7 -3 16 -2 19 1 4 3 -2 6 -13 5 -11 0 -14 -3 -6 -6z"/>
<path d="M1338 2523 c7 -3 16 -2 19 1 4 3 -2 6 -13 5 -11 0 -14 -3 -6 -6z"/>
<path d="M1413 2523 c20 -2 54 -2 75 0 20 2 3 4 -38 4 -41 0 -58 -2 -37 -4z"/>
<path d="M1598 2523 c12 -2 30 -2 40 0 9 3 -1 5 -23 4 -22 0 -30 -2 -17 -4z"/>
<path d="M1760 2519 c58 -3 143 -7 190 -7 69 0 78 2 45 8 -22 5 -107 8 -190 7
l-150 0 105 -8z"/>
<path d="M2063 2518 c-2 -5 30 -8 71 -8 42 0 76 3 76 8 0 4 -32 7 -71 7 -39 0
-73 -3 -76 -7z"/>
<path d="M2225 2520 c-4 -6 19 -7 62 -3 89 8 93 13 10 13 -36 0 -69 -4 -72
-10z"/>
<path d="M2393 2523 c9 -2 23 -2 30 0 6 3 -1 5 -18 5 -16 0 -22 -2 -12 -5z"/>
<path d="M65 2510 c39 -4 102 -7 140 -7 l70 0 -70 7 c-38 4 -101 7 -140 7
l-70 0 70 -7z"/>
<path d="M598 2513 c7 -3 16 -2 19 1 4 3 -2 6 -13 5 -11 0 -14 -3 -6 -6z"/>
<path d="M642 2509 c16 -11 95 -12 101 -1 3 4 -22 8 -55 8 -37 1 -55 -2 -46
-7z"/>
<path d="M296 2501 c-3 -4 6 -6 19 -3 14 2 25 6 25 8 0 8 -39 4 -44 -5z"/>
<path d="M365 2500 c19 -8 73 -14 64 -6 -2 2 -22 6 -44 9 -28 5 -34 4 -20 -3z"/>
<path d="M773 2503 c9 -2 25 -2 35 0 9 3 1 5 -18 5 -19 0 -27 -2 -17 -5z"/>
<path d="M858 2503 c6 -2 18 -2 25 0 6 3 1 5 -13 5 -14 0 -19 -2 -12 -5z"/>
<path d="M1443 2502 c-6 -4 10 -7 37 -7 26 0 46 3 43 8 -5 9 -64 9 -80 -1z"/>
<path d="M1614 2498 c-6 -9 419 -15 430 -6 6 5 -73 8 -175 9 -101 0 -199 1
-217 2 -19 1 -36 -1 -38 -5z"/>
<path d="M2235 2500 l-160 -6 170 0 c94 0 186 3 205 7 33 6 33 6 -10 6 -25 -1
-117 -4 -205 -7z"/>
<path d="M15 2490 c29 -12 134 -12 115 0 -8 5 -42 9 -75 9 -43 0 -54 -3 -40
-9z"/>
<path d="M455 2490 c11 -4 49 -7 85 -8 56 0 60 1 30 8 -43 11 -144 11 -115 0z"/>
<path d="M1578 2493 c7 -3 16 -2 19 1 4 3 -2 6 -13 5 -11 0 -14 -3 -6 -6z"/>
<path d="M2595 2490 c-21 -5 0 -8 65 -8 55 0 87 3 75 7 -27 10 -103 11 -140 1z"/>
<path d="M155 2480 c-3 -4 33 -8 80 -9 47 -1 138 -6 203 -11 124 -10 238 -13
231 -5 -3 2 -86 9 -184 14 -99 6 -213 13 -252 15 -40 3 -75 1 -78 -4z"/>
<path d="M618 2483 c7 -3 16 -2 19 1 4 3 -2 6 -13 5 -11 0 -14 -3 -6 -6z"/>
<path d="M650 2485 c0 -7 30 -13 34 -7 3 4 -4 9 -15 9 -10 1 -19 0 -19 -2z"/>
<path d="M724 2481 c18 -7 66 -3 66 5 0 2 -19 4 -42 3 -31 0 -37 -3 -24 -8z"/>
<path d="M814 2481 c3 -4 22 -8 42 -9 21 -2 35 0 31 4 -9 9 -78 14 -73 5z"/>
<path d="M2475 2480 c-42 -11 -1 -11 50 -1 34 7 35 9 10 9 -16 0 -43 -4 -60
-8z"/>
<path d="M0 2470 c0 -6 16 -10 37 -10 43 0 41 5 -4 13 -19 4 -33 2 -33 -3z"/>
<path d="M908 2473 c7 -3 16 -2 19 1 4 3 -2 6 -13 5 -11 0 -14 -3 -6 -6z"/>
<path d="M948 2473 c7 -3 16 -2 19 1 4 3 -2 6 -13 5 -11 0 -14 -3 -6 -6z"/>
<path d="M1310 2468 c0 -10 9 -9 35 2 17 8 16 8 -7 7 -16 -1 -28 -5 -28 -9z"/>
<path d="M1398 2473 c12 -2 30 -2 40 0 9 3 -1 5 -23 4 -22 0 -30 -2 -17 -4z"/>
<path d="M1493 2473 c9 -2 23 -2 30 0 6 3 -1 5 -18 5 -16 0 -22 -2 -12 -5z"/>
<path d="M1543 2474 c10 -10 79 -16 73 -6 -2 4 -22 9 -42 10 -21 2 -35 0 -31
-4z"/>
<path d="M1730 2470 c95 -11 152 -11 146 -1 -4 5 -52 9 -109 9 -97 -1 -99 -1
-37 -8z"/>
<path d="M2015 2470 c-51 -4 5 -6 151 -7 127 -1 236 2 242 6 14 8 -287 9 -393
1z"/>
<path d="M110 2461 c21 -8 22 -9 5 -10 -16 -1 -17 -3 -5 -11 10 -6 -5 -10 -50
-13 l-65 -3 74 -2 c62 -2 72 0 67 13 -6 16 59 16 279 -1 140 -10 380 -15 372
-7 -5 4 -56 8 -115 9 -59 1 -152 4 -207 8 -55 4 -145 9 -200 11 -55 2 -118 7
-140 9 -31 4 -34 3 -15 -3z"/>
<path d="M1638 2463 c7 -3 16 -2 19 1 4 3 -2 6 -13 5 -11 0 -14 -3 -6 -6z"/>
<path d="M2480 2461 c-36 -3 -58 -9 -50 -12 9 -4 79 -1 155 6 133 12 136 12
50 12 -49 0 -119 -3 -155 -6z"/>
<path d="M688 2453 c6 -2 18 -2 25 0 6 3 1 5 -13 5 -14 0 -19 -2 -12 -5z"/>
<path d="M758 2453 c12 -2 30 -2 40 0 9 3 -1 5 -23 4 -22 0 -30 -2 -17 -4z"/>
<path d="M858 2453 c6 -2 18 -2 25 0 6 3 1 5 -13 5 -14 0 -19 -2 -12 -5z"/>
<path d="M18 2443 c12 -2 32 -2 45 0 12 2 2 4 -23 4 -25 0 -35 -2 -22 -4z"/>
<path d="M1638 2443 c6 -2 18 -2 25 0 6 3 1 5 -13 5 -14 0 -19 -2 -12 -5z"/>
<path d="M1708 2443 c7 -3 16 -2 19 1 4 3 -2 6 -13 5 -11 0 -14 -3 -6 -6z"/>
<path d="M1905 2440 c-4 -6 54 -10 167 -9 123 1 172 -2 170 -10 -1 -8 50 -11
183 -9 175 3 226 10 153 21 -18 2 -87 0 -152 -5 -125 -10 -216 -1 -126 12 25
4 -53 8 -172 8 -135 1 -219 -2 -223 -8z"/>
<path d="M2358 2443 c7 -3 16 -2 19 1 4 3 -2 6 -13 5 -11 0 -14 -3 -6 -6z"/>
<path d="M2620 2440 c0 -5 3 -9 8 -9 24 4 33 -4 12 -11 -21 -7 -18 -8 19 -9
37 -1 42 1 32 13 -10 12 -6 15 26 19 24 2 13 4 -29 5 -40 1 -68 -2 -68 -8z"/>
<path d="M158 2429 c9 -9 191 -18 437 -23 l200 -4 -175 9 c-96 5 -241 12 -322
16 -81 5 -144 5 -140 2z"/>
<path d="M804 2428 c-3 -4 6 -7 20 -6 15 1 26 6 26 10 0 9 -40 6 -46 -4z"/>
<path d="M1328 2433 c6 -2 18 -2 25 0 6 3 1 5 -13 5 -14 0 -19 -2 -12 -5z"/>
<path d="M868 2423 c6 -2 18 -2 25 0 6 3 1 5 -13 5 -14 0 -19 -2 -12 -5z"/>
<path d="M933 2423 c9 -2 25 -2 35 0 9 3 1 5 -18 5 -19 0 -27 -2 -17 -5z"/>
<path d="M1744 2421 c7 -10 4 -12 -12 -7 -11 4 -23 2 -27 -4 -4 -6 9 -10 36
-10 23 0 40 1 38 3 -2 1 -13 9 -23 17 -15 11 -18 12 -12 1z"/>
<path d="M1344 2409 c26 -7 115 -3 124 6 2 2 -31 3 -75 3 -59 0 -71 -2 -49 -9z"/>
<path d="M1938 2413 c29 -2 74 -2 100 0 26 2 2 3 -53 3 -55 0 -76 -1 -47 -3z"/>
<path d="M2123 2413 c20 -2 54 -2 75 0 20 2 3 4 -38 4 -41 0 -58 -2 -37 -4z"/>
<path d="M1 2406 c10 -10 158 -15 164 -6 4 6 -25 10 -81 10 -48 0 -85 -2 -83
-4z"/>
<path d="M184 2398 c-3 -4 28 -8 68 -7 83 1 81 6 -5 12 -32 2 -60 0 -63 -5z"/>
<path d="M813 2403 c9 -2 25 -2 35 0 9 3 1 5 -18 5 -19 0 -27 -2 -17 -5z"/>
<path d="M2435 2399 c-3 -4 27 -7 65 -7 39 0 70 4 70 10 0 11 -128 9 -135 -3z"/>
<path d="M2580 2400 c0 -4 28 -7 63 -8 72 -1 66 4 -10 11 -29 2 -53 1 -53 -3z"/>
<path d="M346 2392 c-4 -6 1 -11 11 -10 10 0 115 -3 233 -7 118 -4 213 -5 210
-3 -3 3 -81 8 -174 12 -93 3 -192 9 -221 12 -33 4 -55 2 -59 -4z"/>
<path d="M1875 2390 c-4 -6 8 -10 29 -10 20 0 36 4 36 8 0 12 -58 14 -65 2z"/>
<path d="M1951 2396 c12 -10 59 -15 59 -6 0 5 -14 10 -32 10 -17 0 -29 -2 -27
-4z"/>
<path d="M2029 2387 c4 -4 93 -10 197 -12 104 -2 189 -5 189 -6 0 0 58 -3 130
-5 78 -2 131 -7 133 -14 2 -5 18 -10 35 -10 l31 0 -22 21 c-13 12 -34 20 -50
19 -71 -5 -263 1 -259 8 3 4 -84 7 -193 7 -110 0 -196 -3 -191 -8z"/>
<path d="M2718 2393 c6 -2 18 -2 25 0 6 3 1 5 -13 5 -14 0 -19 -2 -12 -5z"/>
<path d="M1715 2380 c3 -5 22 -10 41 -10 21 0 33 4 29 10 -3 6 -22 10 -41 10
-21 0 -33 -4 -29 -10z"/>
<path d="M80 2374 c60 -8 128 -8 123 -1 -2 4 -37 6 -76 6 -40 -1 -61 -3 -47
-5z"/>
<path d="M233 2374 c11 -11 87 -14 87 -3 0 5 -21 9 -47 9 -25 0 -43 -3 -40 -6z"/>
<path d="M887 2373 c18 -2 50 -2 70 0 21 2 7 4 -32 4 -38 0 -55 -2 -38 -4z"/>
<path d="M2728 2373 c7 -3 16 -2 19 1 4 3 -2 6 -13 5 -11 0 -14 -3 -6 -6z"/>
<path d="M338 2363 c7 -3 16 -2 19 1 4 3 -2 6 -13 5 -11 0 -14 -3 -6 -6z"/>
<path d="M395 2360 c4 -6 11 -8 16 -5 14 9 11 15 -7 15 -8 0 -12 -5 -9 -10z"/>
<path d="M1856 2362 c-2 -4 31 -9 75 -10 43 -1 79 2 79 7 0 11 -147 14 -154 3z"/>
<path d="M2020 2359 c0 -5 5 -7 10 -4 6 3 10 8 10 11 0 2 -4 4 -10 4 -5 0 -10
-5 -10 -11z"/>
<path d="M2050 2359 c0 -5 5 -7 10 -4 6 3 10 8 10 11 0 2 -4 4 -10 4 -5 0 -10
-5 -10 -11z"/>
<path d="M2080 2361 c0 -5 35 -9 78 -9 52 0 69 2 52 8 -35 11 -130 12 -130 1z"/>
<path d="M85 2350 c19 -8 163 -14 154 -6 -2 2 -42 6 -89 9 -54 4 -78 3 -65 -3z"/>
<path d="M438 2353 c7 -3 16 -2 19 1 4 3 -2 6 -13 5 -11 0 -14 -3 -6 -6z"/>
<path d="M488 2353 c12 -2 30 -2 40 0 9 3 -1 5 -23 4 -22 0 -30 -2 -17 -4z"/>
<path d="M551 2355 c9 -8 269 -13 269 -5 0 5 -62 9 -137 9 -75 1 -135 -1 -132
-4z"/>
<path d="M840 2350 c-8 -5 2 -8 24 -8 20 0 36 3 36 8 0 4 -11 8 -24 8 -13 0
-30 -4 -36 -8z"/>
<path d="M910 2350 c0 -5 12 -10 28 -10 21 0 24 2 12 10 -20 13 -40 13 -40 0z"/>
<path d="M2243 2354 c9 -10 147 -12 153 -3 3 5 -32 9 -77 9 -45 0 -80 -3 -76
-6z"/>
<path d="M261 2346 c10 -9 99 -14 94 -6 -4 6 -27 10 -52 10 -26 0 -44 -2 -42
-4z"/>
<path d="M2391 2336 c-15 -8 12 -10 102 -8 175 4 215 20 50 19 -73 -1 -141 -6
-152 -11z"/>
<path d="M13 2333 c9 -2 23 -2 30 0 6 3 -1 5 -18 5 -17 0 -22 -2 -12 -5z"/>
<path d="M410 2329 c0 -4 15 -7 34 -6 19 0 33 4 30 8 -6 10 -64 8 -64 -2z"/>
<path d="M502 2328 c7 -4 29 -7 48 -6 19 0 54 -2 78 -6 28 -5 42 -4 42 3 0 6
-20 11 -47 12 -27 0 -67 1 -91 3 -23 1 -37 -1 -30 -6z"/>
<path d="M2075 2330 c-3 -5 1 -10 9 -10 9 0 16 5 16 10 0 6 -4 10 -9 10 -6 0
-13 -4 -16 -10z"/>
<path d="M2203 2334 c3 -4 42 -9 84 -11 43 -3 76 -3 73 0 -8 7 -165 19 -157
11z"/>
<path d="M135 2320 c55 -9 211 -13 203 -5 -2 3 -61 7 -129 9 -88 3 -109 2 -74
-4z"/>
<path d="M684 2322 c3 -5 45 -10 93 -11 48 -1 107 -4 131 -5 23 -2 42 0 42 4
0 4 -10 8 -22 9 -13 0 -74 3 -137 7 -68 3 -111 2 -107 -4z"/>
<path d="M2640 2320 c0 -12 34 -12 70 0 20 7 16 8 -22 9 -27 1 -48 -3 -48 -9z"/>
<path d="M25 2313 c17 -3 34 -9 40 -14 15 -15 28 -10 15 6 -7 9 -27 14 -49 14
-34 -2 -34 -2 -6 -6z"/>
<path d="M530 2300 c-14 -4 -20 -9 -15 -9 6 -1 3 -6 -5 -11 -11 -8 -7 -9 15
-5 44 8 236 7 317 -1 55 -5 69 -4 63 6 -4 7 -20 10 -36 8 -15 -3 -26 -1 -23 4
3 4 -52 8 -123 8 -70 0 -137 2 -148 4 -11 3 -31 1 -45 -4z"/>
<path d="M2205 2300 c-3 -5 -1 -10 4 -10 6 0 11 5 11 10 0 6 -2 10 -4 10 -3 0
-8 -4 -11 -10z"/>
<path d="M2257 2303 c-3 -5 46 -9 109 -9 63 -1 114 2 114 7 0 11 -217 12 -223
2z"/>
<path d="M2500 2300 c0 -5 18 -10 41 -10 22 0 38 4 35 8 -7 12 -76 14 -76 2z"/>
<path d="M8 2293 c7 -3 16 -2 19 1 4 3 -2 6 -13 5 -11 0 -14 -3 -6 -6z"/>
<path d="M108 2293 c7 -3 16 -2 19 1 4 3 -2 6 -13 5 -11 0 -14 -3 -6 -6z"/>
<path d="M238 2293 c12 -2 32 -2 45 0 12 2 2 4 -23 4 -25 0 -35 -2 -22 -4z"/>
<path d="M2605 2290 c25 -11 14 -13 -55 -11 -40 1 -51 -1 -40 -8 24 -17 92
-12 130 9 l35 19 -45 0 c-34 0 -40 -2 -25 -9z"/>
<path d="M920 2280 c0 -5 5 -10 11 -10 5 0 7 5 4 10 -3 6 -8 10 -11 10 -2 0
-4 -4 -4 -10z"/>
<path d="M30 2270 c-32 -7 -30 -7 20 -9 39 0 51 2 40 9 -8 5 -17 9 -20 9 -3
-1 -21 -5 -40 -9z"/>
<path d="M1368 2273 c7 -3 16 -2 19 1 4 3 -2 6 -13 5 -11 0 -14 -3 -6 -6z"/>
<path d="M2228 2273 c6 -2 18 -2 25 0 6 3 1 5 -13 5 -14 0 -19 -2 -12 -5z"/>
<path d="M2360 2265 c0 -8 5 -15 10 -15 6 0 10 7 10 15 0 8 -4 15 -10 15 -5 0
-10 -7 -10 -15z"/>
<path d="M2400 2265 c-11 -13 -6 -15 31 -14 33 0 39 2 24 8 -19 8 -18 9 5 13
20 4 17 6 -11 7 -22 0 -42 -5 -49 -14z"/>
<path d="M556 2261 c11 -10 74 -20 92 -14 27 10 -2 23 -51 23 -29 0 -47 -4
-41 -9z"/>
<path d="M5 2240 c-4 -6 19 -10 62 -10 48 0 63 3 53 10 -20 13 -107 13 -115 0z"/>
<path d="M1930 2240 c0 -5 5 -10 10 -10 6 0 10 5 10 10 0 6 -4 10 -10 10 -5 0
-10 -4 -10 -10z"/>
<path d="M2610 2243 c-52 -2 -99 -8 -103 -12 -10 -10 176 -2 218 9 26 7 26 8
5 7 -14 -1 -68 -3 -120 -4z"/>
<path d="M2395 2230 c-15 -6 -6 -9 33 -9 33 -1 51 3 47 9 -7 12 -52 12 -80 0z"/>
<path d="M650 2220 c0 -5 9 -10 20 -10 11 0 20 5 20 10 0 6 -9 10 -20 10 -11
0 -20 -4 -20 -10z"/>
<path d="M756 2221 c-7 -11 86 -22 98 -11 5 5 0 7 -11 4 -12 -3 -24 -1 -27 5
-8 13 -53 15 -60 2z"/>
<path d="M0 2210 c0 -12 17 -12 45 0 17 7 15 9 -12 9 -18 1 -33 -3 -33 -9z"/>
<path d="M75 2210 c3 -5 14 -10 23 -10 15 0 15 2 2 10 -20 13 -33 13 -25 0z"/>
<path d="M2592 2211 c-9 -5 9 -7 43 -6 31 2 59 5 62 9 10 9 -90 7 -105 -3z"/>
<path d="M2718 2213 c6 -2 18 -2 25 0 6 3 1 5 -13 5 -14 0 -19 -2 -12 -5z"/>
<path d="M2425 2200 c3 -5 15 -10 26 -10 10 0 19 5 19 10 0 6 -12 10 -26 10
-14 0 -23 -4 -19 -10z"/>
<path d="M2503 2203 c9 -2 23 -2 30 0 6 3 -1 5 -18 5 -16 0 -22 -2 -12 -5z"/>
<path d="M2725 2190 c3 -5 10 -10 16 -10 5 0 9 5 9 10 0 6 -7 10 -16 10 -8 0
-12 -4 -9 -10z"/>
<path d="M0 2182 c0 -5 7 -9 15 -9 8 0 15 4 15 9 0 4 -7 8 -15 8 -8 0 -15 -4
-15 -8z"/>
<path d="M110 2180 c-12 -8 -10 -10 8 -10 13 0 20 4 17 10 -7 12 -6 12 -25 0z"/>
<path d="M723 2183 c9 -2 23 -2 30 0 6 3 -1 5 -18 5 -16 0 -22 -2 -12 -5z"/>
<path d="M2665 2180 c-3 -5 -1 -10 4 -10 6 0 11 5 11 10 0 6 -2 10 -4 10 -3 0
-8 -4 -11 -10z"/>
<path d="M2533 2173 c15 -2 37 -2 50 0 12 2 0 4 -28 4 -27 0 -38 -2 -22 -4z"/>
<path d="M8 2149 c-8 -5 17 -9 60 -9 43 0 72 4 72 10 0 13 -112 11 -132 -1z"/>
<path d="M2608 2151 c-36 -3 -70 -10 -75 -14 -4 -5 19 -6 52 -2 33 3 82 7 108
9 27 2 51 7 54 10 7 7 -40 6 -139 -3z"/>
<path d="M2739 2135 c-4 -3 -44 -8 -90 -11 -46 -3 -87 -9 -91 -13 -8 -7 183
-2 191 5 1 1 1 8 -1 14 -2 6 -6 9 -9 5z"/>
<path d="M46 2120 c-16 -5 -33 -7 -38 -4 -4 3 -8 1 -8 -5 0 -5 25 -9 56 -9 35
0 51 4 42 9 -9 6 -7 9 10 9 13 0 20 -4 17 -10 -3 -5 -1 -10 5 -10 7 0 10 6 8
13 -6 15 -53 19 -92 7z"/>
<path d="M2635 2091 c-3 -5 21 -10 55 -10 33 0 60 4 60 10 0 12 -107 12 -115
0z"/>
<path d="M5 2079 c-5 -7 17 -8 72 -4 43 4 80 9 82 11 2 2 -30 4 -72 4 -43 0
-79 -5 -82 -11z"/>
<path d="M2635 2062 c-16 -2 -34 -8 -40 -14 -7 -8 -4 -9 8 -4 10 3 36 6 58 6
21 0 39 4 39 8 0 8 -16 9 -65 4z"/>
<path d="M2718 2063 c6 -2 18 -2 25 0 6 3 1 5 -13 5 -14 0 -19 -2 -12 -5z"/>
<path d="M25 2051 c3 -5 -3 -12 -12 -15 -10 -2 -3 -3 16 -1 47 5 65 25 22 25
-18 0 -30 -4 -26 -9z"/>
<path d="M2638 2029 c-10 -5 -25 -9 -34 -7 -9 2 -19 -2 -21 -8 -5 -16 65 -4
71 12 6 16 6 16 -16 3z"/>
<path d="M2690 2028 c0 -4 13 -6 29 -5 16 1 27 4 24 7 -8 8 -53 7 -53 -2z"/>
<path d="M13 2013 c9 -2 25 -2 35 0 9 3 1 5 -18 5 -19 0 -27 -2 -17 -5z"/>
<path d="M2686 1997 c3 -10 9 -15 12 -12 3 3 0 11 -7 18 -10 9 -11 8 -5 -6z"/>
<path d="M2606 1991 c-10 -15 22 -20 34 -5 10 11 9 14 -8 14 -12 0 -23 -4 -26
-9z"/>
<path d="M2720 1996 c0 -2 7 -6 15 -10 8 -3 15 -1 15 4 0 6 -7 10 -15 10 -8 0
-15 -2 -15 -4z"/>
<path d="M2592 1962 c-26 -4 -20 -22 8 -22 20 0 36 16 23 22 -5 2 -18 2 -31 0z"/>
<path d="M2685 1963 c-36 -5 -59 -23 -29 -23 38 0 94 13 94 21 0 9 -11 9 -65
2z"/>
<path d="M2720 1931 c0 -4 -10 -6 -22 -4 -13 2 -54 0 -93 -5 l-70 -9 109 -2
c95 -1 107 1 96 14 -14 17 -20 19 -20 6z"/>
<path d="M2519 1887 c5 -5 21 -7 37 -5 27 3 26 4 -8 9 -22 3 -34 1 -29 -4z"/>
<path d="M2625 1890 c-2 -4 25 -7 60 -7 36 0 65 4 65 9 0 10 -119 8 -125 -2z"/>
<path d="M2616 1851 c-4 -5 5 -8 19 -6 35 3 44 15 12 15 -14 0 -28 -4 -31 -9z"/>
<path d="M18 1773 c-33 -8 -18 -23 22 -21 41 1 52 11 24 22 -17 6 -19 6 -46
-1z"/>
<path d="M2352 1729 c-12 -5 -22 -11 -22 -13 0 -3 51 -5 113 -5 76 0 107 3 95
9 -9 6 -35 8 -58 6 -23 -2 -56 0 -74 4 -18 4 -42 3 -54 -1z"/>
<path d="M30 1720 c-35 -7 -34 -11 7 -15 12 -1 24 4 27 11 3 8 4 13 3 13 -1
-1 -18 -5 -37 -9z"/>
<path d="M3 1676 c5 -15 37 -20 49 -8 6 6 -1 11 -22 14 -19 3 -29 1 -27 -6z"/>
<path d="M2633 1660 c-75 -11 -60 -21 27 -18 57 2 85 7 88 16 4 14 -28 14
-115 2z"/>
<path d="M2498 1653 c-10 -2 -18 -9 -18 -14 0 -11 76 -7 87 5 4 5 0 6 -9 3
-10 -3 -20 -2 -23 3 -6 10 -9 11 -37 3z"/>
<path d="M0 1626 c0 -9 7 -12 20 -9 11 3 17 9 14 14 -8 14 -34 10 -34 -5z"/>
<path d="M2620 1621 c0 -6 5 -13 12 -17 7 -4 8 -3 4 4 -4 7 -1 12 9 12 9 0 13
-4 10 -10 -3 -5 4 -10 17 -11 17 -1 14 -3 -12 -11 -54 -15 -60 -28 -13 -28 50
0 103 10 103 20 0 10 -33 9 -48 -3 -9 -7 -11 -6 -6 7 3 9 17 16 30 16 15 0 24
6 24 15 0 12 -14 15 -65 15 -36 0 -65 -4 -65 -9z"/>
<path d="M2488 1613 c7 -3 16 -2 19 1 4 3 -2 6 -13 5 -11 0 -14 -3 -6 -6z"/>
<path d="M2533 1613 c9 -2 23 -2 30 0 6 3 -1 5 -18 5 -16 0 -22 -2 -12 -5z"/>
<path d="M2635 1538 c25 -15 46 -16 64 -3 11 7 13 7 7 -2 -4 -8 -2 -13 6 -14
7 0 4 -4 -7 -9 -11 -5 -14 -9 -7 -9 6 -1 12 -9 12 -18 0 -13 -3 -14 -12 -5
-17 17 -38 15 -38 -3 0 -8 9 -15 20 -15 11 0 23 -6 26 -14 3 -8 13 -16 23 -19
14 -3 17 4 19 51 3 66 -3 72 -78 72 -47 -1 -52 -2 -35 -12z"/>
<path d="M23 173 c15 -2 37 -2 50 0 12 2 0 4 -28 4 -27 0 -38 -2 -22 -4z"/>
<path d="M123 173 c9 -2 25 -2 35 0 9 3 1 5 -18 5 -19 0 -27 -2 -17 -5z"/>
<path d="M162 92 c-13 -4 -22 -11 -20 -17 3 -12 345 -16 367 -5 7 4 -33 10
-90 13 -57 4 -133 9 -169 11 -36 3 -75 2 -88 -2z m76 -9 c-10 -2 -26 -2 -35 0
-10 3 -2 5 17 5 19 0 27 -2 18 -5z m55 -10 c-7 -2 -19 -2 -25 0 -7 3 -2 5 12
5 14 0 19 -2 13 -5z"/>
<path d="M1538 73 c12 -2 30 -2 40 0 9 3 -1 5 -23 4 -22 0 -30 -2 -17 -4z"/>
<path d="M2388 73 c7 -3 16 -2 19 1 4 3 -2 6 -13 5 -11 0 -14 -3 -6 -6z"/>
<path d="M2478 53 c7 -3 16 -2 19 1 4 3 -2 6 -13 5 -11 0 -14 -3 -6 -6z"/>
</g>
</svg>
